<?xml version="1.0" standalone="no"?>
<!DOCTYPE svg PUBLIC "-//W3C//DTD SVG 20010904//EN"
 "http://www.w3.org/TR/2001/REC-SVG-20010904/DTD/svg10.dtd">
<svg version="1.0" xmlns="http://www.w3.org/2000/svg"
 width="1948.000000pt" height="1435.000000pt" viewBox="0 0 1948.000000 1435.000000"
 preserveAspectRatio="xMidYMid meet">

<g transform="translate(0.000000,1435.000000) scale(0.100000,-0.100000)"
fill="#000000" stroke="none">
<path d="M4796 14340 c-394 -45 -788 -272 -984 -569 -238 -362 -254 -840 -42
-1261 177 -352 476 -585 852 -666 123 -27 369 -25 505 4 265 57 480 177 669
374 130 135 219 281 282 460 91 256 88 568 -8 829 -107 295 -354 570 -635 711
-193 97 -431 141 -639 118z"/>
<path d="M15655 11860 c-164 -22 -289 -107 -347 -237 -33 -73 -37 -200 -8
-275 41 -109 138 -193 330 -285 157 -76 215 -148 196 -245 -10 -54 -41 -94
-93 -119 -71 -35 -205 -32 -323 7 -47 16 -89 28 -94 29 -7 0 -54 -167 -56
-198 0 -14 86 -47 163 -63 93 -20 265 -19 340 1 128 33 235 113 285 211 29 57
46 155 38 226 -16 155 -103 254 -318 363 -73 38 -146 78 -161 89 -95 70 -88
201 13 260 52 31 210 29 298 -3 35 -13 65 -21 66 -20 2 2 14 50 28 106 l25
101 -65 22 c-64 21 -182 40 -232 38 -14 0 -52 -4 -85 -8z"/>
<path d="M12355 11851 c-44 -4 -101 -11 -127 -15 l-48 -7 0 -680 0 -679 130 0
130 0 0 259 0 259 58 -5 c181 -16 384 61 474 181 59 79 81 164 76 293 -3 91
-8 117 -31 163 -55 114 -144 183 -278 215 -77 18 -274 26 -384 16z m333 -227
c76 -37 107 -93 106 -194 -1 -172 -105 -252 -316 -242 l-38 2 0 229 0 230 38
4 c72 9 156 -3 210 -29z"/>
<path d="M13424 11850 c-51 -4 -110 -11 -133 -15 l-41 -7 0 -679 0 -679 130 0
130 0 0 280 0 280 75 0 c83 0 128 -14 162 -51 33 -36 50 -85 84 -232 16 -73
39 -165 51 -204 l21 -73 135 0 c124 0 134 1 126 18 -4 9 -32 113 -61 231 -30
118 -66 239 -80 268 -25 50 -73 103 -118 129 -16 9 -12 14 37 41 62 36 116 93
150 162 20 40 23 61 23 156 0 98 -3 116 -26 166 -47 100 -144 170 -279 198
-73 16 -272 22 -386 11z m302 -205 c54 -16 106 -62 124 -110 18 -47 14 -138
-8 -188 -36 -82 -109 -118 -245 -120 l-82 -2 -3 212 c-2 195 -1 212 15 216 40
10 153 6 199 -8z"/>
<path d="M9650 11160 l0 -690 380 0 380 0 0 110 0 110 -250 0 -250 0 0 195 0
195 225 0 225 0 0 105 0 105 -225 0 -225 0 0 170 0 170 235 0 235 0 0 110 0
110 -365 0 -365 0 0 -690z"/>
<path d="M10676 11778 c-10 -108 -86 -1252 -86 -1282 l0 -26 114 0 114 0 6 73
c6 72 29 536 42 847 4 96 10 157 15 145 4 -11 23 -94 43 -185 20 -91 73 -302
120 -470 46 -168 89 -324 95 -347 l12 -43 97 0 97 0 113 378 c62 207 129 442
149 522 20 80 40 149 45 154 4 6 8 -44 8 -110 0 -129 27 -799 36 -901 l6 -63
119 0 119 0 -1 58 c0 31 -17 341 -37 687 l-37 630 -160 0 -159 0 -53 -175
c-95 -314 -145 -492 -183 -658 -21 -90 -40 -165 -42 -167 -2 -2 -23 82 -47
187 -36 161 -123 486 -202 751 l-20 67 -159 0 -158 0 -6 -72z"/>
<path d="M14350 11160 l0 -690 380 0 380 0 0 110 0 110 -250 0 -250 0 0 195 0
195 220 0 220 0 0 105 0 105 -220 0 -220 0 0 170 0 170 235 0 235 0 0 110 0
110 -365 0 -365 0 0 -690z"/>
<path d="M16585 11838 c-3 -7 -88 -310 -190 -673 -102 -363 -188 -668 -191
-677 -5 -17 6 -18 125 -18 127 0 131 1 136 23 4 12 25 94 48 182 l42 160 186
3 185 2 50 -185 49 -185 132 0 c100 0 133 3 133 13 0 6 -85 316 -189 687
l-187 675 -162 3 c-125 2 -164 0 -167 -10z m179 -295 c15 -73 103 -432 122
-495 5 -17 -6 -18 -139 -18 -79 0 -146 2 -148 5 -3 2 16 89 43 192 26 103 58
236 70 296 12 59 25 107 29 107 3 0 14 -39 23 -87z"/>
<path d="M4630 11634 c-373 -46 -812 -233 -1250 -532 -419 -286 -892 -693
-1425 -1227 -996 -997 -1635 -1894 -1899 -2664 -25 -74 -46 -140 -46 -148 0
-8 57 59 127 149 904 1165 1860 2193 2558 2752 534 428 944 618 1238 577 148
-21 206 -31 228 -40 19 -7 -176 -180 -1532 -1362 -855 -744 -1727 -1504 -1938
-1688 -211 -184 -380 -336 -374 -338 6 -2 75 12 153 32 965 243 1887 764 2642
1494 476 459 904 1044 1181 1613 40 81 75 147 79 147 3 1 34 -27 68 -61 559
-558 584 -2277 69 -4588 -411 -1840 -1093 -3591 -1763 -4525 -176 -245 -312
-389 -919 -964 -147 -140 -266 -255 -264 -258 9 -8 187 51 267 88 274 129 628
381 985 703 188 170 632 606 703 690 37 45 106 127 154 183 634 744 1306 1900
1753 3018 489 1221 771 2425 867 3705 19 261 16 869 -5 1075 -101 949 -409
1651 -869 1975 -125 88 -250 143 -402 176 -69 15 -315 27 -386 18z"/>
<path d="M15040 10209 c-650 -81 -1107 -601 -1216 -1384 -23 -165 -23 -486 0
-660 87 -643 402 -1099 886 -1282 263 -100 641 -102 930 -7 432 143 734 495
865 1009 60 233 70 326 70 650 0 261 -2 303 -23 419 -113 625 -428 1042 -907
1200 -44 14 -114 33 -155 41 -94 19 -351 27 -450 14z m347 -541 c312 -110 506
-500 529 -1063 16 -368 -58 -727 -198 -963 -42 -72 -155 -192 -218 -232 -118
-76 -271 -104 -412 -75 -117 24 -206 73 -299 165 -146 145 -243 364 -296 665
-27 154 -24 559 5 715 56 302 153 512 303 656 128 122 243 166 419 160 70 -2
114 -10 167 -28z"/>
<path d="M17530 10180 c-111 -9 -330 -34 -414 -49 l-41 -7 -3 -1637 -2 -1637
320 0 320 0 0 675 0 675 118 0 c237 -1 343 -31 430 -124 96 -101 136 -205 202
-516 54 -256 113 -492 153 -610 l32 -95 329 -3 c310 -2 328 -1 321 15 -42 104
-98 310 -200 743 -77 329 -115 437 -195 564 -51 81 -160 184 -228 215 -28 14
-52 27 -52 30 0 3 37 25 83 48 173 89 312 229 393 398 69 142 87 224 87 395 0
279 -70 470 -232 630 -138 136 -328 224 -583 271 -95 17 -161 21 -418 24 -168
2 -357 -1 -420 -5z m670 -494 c230 -64 350 -228 350 -481 0 -219 -94 -382
-270 -468 -109 -54 -185 -67 -392 -67 l-178 0 0 509 0 510 58 6 c31 3 66 8 77
10 47 9 304 -5 355 -19z"/>
<path d="M6593 9063 c4 -1206 3 -1185 62 -1421 132 -519 450 -790 976 -831
147 -12 314 -2 446 25 515 106 820 499 882 1138 7 70 11 489 11 1153 l0 1043
-314 0 -315 0 -4 -1097 c-3 -969 -5 -1109 -20 -1189 -57 -314 -181 -484 -392
-539 -67 -17 -208 -19 -274 -4 -220 50 -365 256 -410 584 -7 50 -11 447 -11
1161 l0 1084 -320 0 -321 0 4 -1107z"/>
<path d="M9610 8510 l0 -1660 292 0 291 0 -6 918 c-6 831 -13 1123 -33 1460
-4 66 -3 112 3 112 5 0 33 -60 62 -132 153 -378 307 -696 779 -1603 l391 -750
320 -3 321 -2 0 1660 0 1660 -291 0 -292 0 6 -847 c3 -467 11 -931 16 -1033
15 -255 30 -479 37 -517 3 -20 1 -33 -6 -33 -5 0 -10 5 -10 11 0 19 -144 357
-250 586 -56 120 -289 580 -520 1023 l-419 805 -345 3 -346 2 0 -1660z"/>
<path d="M12680 8510 l0 -1660 320 0 320 0 0 1660 0 1660 -320 0 -320 0 0
-1660z"/>
<path d="M4525 6764 c-1228 -879 -2072 -2017 -2540 -3429 -216 -649 -341
-1314 -405 -2150 -15 -185 -24 -1075 -12 -1055 19 29 3083 6712 3080 6716 -2
1 -57 -35 -123 -82z"/>
<path d="M18493 6309 c-289 -34 -559 -131 -788 -283 -389 -260 -633 -663 -726
-1201 -27 -151 -37 -529 -20 -698 48 -461 206 -824 480 -1098 222 -221 455
-343 800 -416 120 -26 140 -27 411 -28 229 0 307 4 395 18 136 23 295 63 356
91 l46 21 -38 210 c-21 116 -43 240 -49 277 l-12 66 -71 -24 c-155 -53 -274
-69 -507 -69 -169 0 -230 4 -285 17 -447 109 -712 424 -792 941 -23 152 -23
472 1 612 50 300 144 507 306 678 181 192 403 292 690 312 174 13 427 -26 589
-90 44 -17 63 -20 66 -12 3 7 34 133 70 281 51 209 62 271 53 278 -61 38 -275
92 -453 113 -138 16 -402 18 -522 4z"/>
<path d="M6530 4445 l0 -1825 345 0 345 0 2 763 3 762 583 3 582 2 -2 283 -3
282 -582 3 -583 2 0 480 0 480 625 0 625 0 0 295 0 295 -970 0 -970 0 0 -1825z"/>
<path d="M9179 4447 l-516 -1822 350 -3 c193 -1 352 0 354 2 3 3 253 954 253
964 0 1 221 1 491 0 l492 -3 130 -482 131 -483 364 0 364 0 -5 23 c-3 12 -232
833 -509 1824 l-503 1803 -440 0 -440 0 -516 -1823z m950 1196 c6 -27 38 -172
71 -323 33 -152 114 -481 180 -732 66 -252 120 -462 120 -468 0 -7 -126 -10
-390 -10 -214 0 -390 2 -390 4 0 2 48 185 106 407 124 476 138 533 210 874 30
143 57 268 60 278 9 30 22 19 33 -30z"/>
<path d="M11630 5970 l0 -300 450 0 450 0 0 -1525 0 -1525 345 0 345 0 0 1525
0 1525 455 0 455 0 0 300 0 300 -1250 0 -1250 0 0 -300z"/>
<path d="M14550 4445 l0 -1825 1015 0 1015 0 0 295 0 295 -670 0 -670 0 0 510
0 510 595 0 595 0 0 285 0 285 -595 0 -595 0 0 440 0 440 630 0 630 0 0 295 0
295 -975 0 -975 0 0 -1825z"/>
</g>
</svg>
